<svg width="74.95mm" height="23.442mm" version="1.1" viewBox="0 0 74.95 23.442" xmlns="http://www.w3.org/2000/svg" xmlns:cc="http://creativecommons.org/ns#" xmlns:dc="http://purl.org/dc/elements/1.1/" xmlns:rdf="http://www.w3.org/1999/02/22-rdf-syntax-ns#">
 <path d="m35.932 23.345c-2.244-0.3358-4.6988-2.0901-5.8075-4.1502-0.97426-1.8104-1.02-2.2868-1.02-10.614 0-4.651 0.0677-7.7739 0.17266-7.9701 0.40799-0.76232 2.0573-0.70915 2.3586 0.0761 0.063 0.16424 0.11459 2.0781 0.11459 4.253 0 2.1749 0.0317 3.9543 0.0705 3.9543s0.48131-0.27647 0.98344-0.61438c2.3867-1.6061 5.7163-1.7642 8.3829-0.39798 4.6761 2.3957 5.8477 8.7622 2.3448 12.742-1.8806 2.1365-4.7188 3.153-7.6 2.7218zm3.8214-3.2317c1.1164-0.54618 2.1101-1.5736 2.6416-2.7312 0.52553-1.1446 0.52452-3.3105-2e-3 -4.4576-0.88071-1.9185-2.9228-3.208-5.0782-3.2067-1.5622 8.9e-4 -2.6911 0.47004-3.8349 1.5935-1.128 1.108-1.5761 2.2051-1.5826 3.8753-4e-3 1.1302 0.0747 1.4823 0.5501 2.448 1.3468 2.7357 4.5557 3.8245 7.3061 2.4789zm17.309 3.2262c-2.8695-0.42037-5.5645-2.7755-6.4568-5.6423-0.30703-0.98649-0.33418-1.7157-0.33418-8.976 0-7.2765 0.0246-7.9326 0.31005-8.2852 0.43069-0.53189 1.3356-0.53435 1.8988-5e-3l0.43694 0.41049v4.0262c0 2.2144 0.045 4.0262 0.1 4.0262s0.35599-0.19528 0.6689-0.43395c1.1993-0.91472 2.5396-1.3768 4.2534-1.4665 2.679-0.14013 4.5958 0.60791 6.4166 2.5041 1.7762 1.8498 2.4158 3.59 2.2792 6.2017-0.0692 1.3229-0.18254 1.8304-0.61298 2.7445-1.7038 3.6185-5.0812 5.464-8.9599 4.8958zm3.0121-2.8864c1.8156-0.53918 3.2081-2.0367 3.7079-3.9876 0.48677-1.9-0.0423-3.7401-1.4821-5.1543-1.1437-1.1234-2.2727-1.5925-3.8349-1.5935-3.5518-2e-3 -6.1034 3.1484-5.3783 6.6408 0.64353 3.0999 3.9038 5.0103 6.9874 4.0946zm-56.919 2.6612c-0.98262-0.35115-1.6972-0.93763-2.2113-1.8147-0.89158-1.5214-0.93772-2.0884-0.9407-11.558l-0.0028-8.7655 0.41839-0.4864c0.53898-0.62662 1.6052-0.65687 2.0891-0.0593 0.29189 0.36046 0.31552 0.99913 0.32527 8.7917 6e-3 4.6217 0.0733 8.785 0.15008 9.2518 0.21882 1.3308 0.65104 1.7724 1.8866 1.9279 1.0758 0.13539 1.4005 0.37117 1.5988 1.161 0.33352 1.3283-1.5155 2.1942-3.3135 1.5516zm10.246-0.14879c-2.1425-0.7481-3.737-2.234-4.7952-4.4686-0.55585-1.1738-0.57995-1.3131-0.57995-3.3505 0-2.1012 8e-3 -2.1414 0.66177-3.4648 0.87139-1.7631 2.215-3.1067 3.9781-3.9781 1.3244-0.65457 1.3622-0.66177 3.474-0.66177 2.1117 0 2.1495 7e-3 3.474 0.66177 1.7589 0.8693 3.1071 2.2156 3.9729 3.9675 0.59536 1.2046 0.66299 1.4895 0.726 3.0583 0.0844 2.1015-0.31675 3.6147-1.3522 5.1007-0.8571 1.2299-2.4658 2.5376-3.7264 3.029-1.5096 0.58846-4.3067 0.6396-5.833 0.10665zm5.2392-2.8785c1.055-0.51614 2.0446-1.56 2.585-2.7266 0.54855-1.1841 0.52377-3.3141-0.0523-4.4933-0.54842-1.1226-1.6191-2.1904-2.7401-2.7327-1.2326-0.59631-3.3336-0.60631-4.5396-0.0216-3.8718 1.8772-4.3596 7.1137-0.89342 9.5906 1.544 1.1033 3.849 1.2601 5.6404 0.38365zm53.768 3.067c-0.79918-0.43712-0.79375-0.38265-0.79375-7.9555 0-4.3656 0.0681-7.3371 0.17267-7.5325 0.3867-0.72255 1.8186-0.80916 2.4185-0.14628 0.29726 0.32847 0.31924 0.85655 0.31924 7.6696v7.3169l-0.49491 0.4257c-0.53216 0.45775-1.0589 0.52986-1.6218 0.22202zm-0.52244-19.42c-1.357-1.1865-0.56598-3.3073 1.2335-3.3073 0.63965 0 0.83329 0.0929 1.2991 0.6235 0.81401 0.92711 0.68472 2.0578-0.32641 2.8546-0.46883 0.36945-1.6971 0.27437-2.2062-0.17078z" fill="#78bae5" stroke-width=".17639"/>
</svg>
